<?xml version="1.0" encoding="UTF-8"?>
<svg id="Capa_2" data-name="Capa 2" xmlns="http://www.w3.org/2000/svg" xmlns:xlink="http://www.w3.org/1999/xlink" viewBox="0 0 571.07 189.92">
  <defs>
    <style>
      .cls-1 {
        fill: url(#Degradado_sin_nombre_7-2);
      }

      .cls-1, .cls-2, .cls-3, .cls-4, .cls-5 {
        fill-rule: evenodd;
        stroke-width: 0px;
      }

      .cls-2 {
        fill: url(#Degradado_sin_nombre_7-4);
      }

      .cls-3 {
        fill: url(#Degradado_sin_nombre_25);
      }

      .cls-4 {
        fill: url(#Degradado_sin_nombre_7-3);
      }

      .cls-5 {
        fill: url(#Degradado_sin_nombre_7);
      }
    </style>
    <linearGradient id="Degradado_sin_nombre_7" data-name="Degradado sin nombre 7" x1="571.07" y1="84.62" x2="242.66" y2="84.62" gradientUnits="userSpaceOnUse">
      <stop offset="0" stop-color="#eed9e9"/>
      <stop offset="1" stop-color="#1d62ad"/>
    </linearGradient>
    <linearGradient id="Degradado_sin_nombre_7-2" data-name="Degradado sin nombre 7" x1="558.81" y1="137.46" x2="241.05" y2="137.46" xlink:href="#Degradado_sin_nombre_7"/>
    <linearGradient id="Degradado_sin_nombre_7-3" data-name="Degradado sin nombre 7" x1="0" y1="94.96" x2="212.35" y2="94.96" xlink:href="#Degradado_sin_nombre_7"/>
    <linearGradient id="Degradado_sin_nombre_25" data-name="Degradado sin nombre 25" x1="91.1" y1="16.15" x2="124.09" y2="16.15" gradientUnits="userSpaceOnUse">
      <stop offset="0" stop-color="#9fa0cf"/>
      <stop offset="1" stop-color="#7587c2"/>
    </linearGradient>
    <linearGradient id="Degradado_sin_nombre_7-4" data-name="Degradado sin nombre 7" x1="0" y1="94.96" x2="212.35" y2="94.96" xlink:href="#Degradado_sin_nombre_7"/>
  </defs>
  <g id="cdr_layer2">
    <path class="cls-5" d="m252.59,109.45h-9.93v-49.67h9.93v49.67Zm8.93-9.93h42.29c1.61,0,2.41-.82,2.41-2.47v-4.97c0-1.66-.84-2.49-2.5-2.49h-39.7c-1.66,0-2.5-.84-2.5-2.5v-19.85c0-3.14.89-5.27,2.66-6.39,1.09-.7,2.7-1.06,4.83-1.06h47.15v9.93h-42.23c-1.65,0-2.47.82-2.47,2.47v4.98c0,1.66.8,2.49,2.38,2.49h34.87c4.97,0,7.45,2.48,7.45,7.43v14.92c0,2.49-1.15,4.56-3.44,6.22-1.12.82-2.45,1.23-4.01,1.23h-47.18v-9.93Zm108.1-19.87v-7.47c0-.72-.24-1.31-.71-1.77-.47-.46-1.07-.7-1.79-.7h-29.8c-1.65,0-2.47.82-2.47,2.47v7.47h34.77Zm-44.7,29.8v-42.22c0-3.14.89-5.27,2.66-6.39,1.09-.7,2.7-1.06,4.83-1.06h39.7c2.77,0,4.9,1.2,6.37,3.59.72,1.17,1.08,2.45,1.08,3.86v42.22h-9.93v-19.87h-34.77v19.87h-9.93Zm75-9.93h32.35c1.61,0,2.42-.82,2.42-2.47v-4.97c0-1.66-.84-2.49-2.5-2.49h-32.27v9.93Zm34.77-27.33c0-.72-.24-1.31-.71-1.77-.47-.46-1.07-.7-1.79-.7h-32.27v9.93h32.35c1.61,0,2.42-.83,2.42-2.49v-4.98Zm-44.7,37.27v-49.67h47.18c2.77,0,4.9,1.2,6.37,3.59.72,1.17,1.08,2.45,1.08,3.86v14.92c0,.6-.26,1.16-.77,1.66-.52.5-1.08.76-1.7.81,1.65.42,2.47,1.24,2.47,2.47v14.92c0,2.49-1.15,4.56-3.44,6.22-1.12.82-2.45,1.23-4.01,1.23h-47.18Zm65.04-42.22c0-3.14.89-5.27,2.66-6.39,1.09-.7,2.71-1.06,4.83-1.06h47.17v9.93h-42.25c-1.65,0-2.47.82-2.47,2.47v7.47h34.8v9.93h-34.8v7.47c0,1.65.82,2.47,2.47,2.47h42.25v9.93h-47.17c-3.88,0-6.21-1.23-6.99-3.7-.33-1.06-.5-2.31-.5-3.75v-34.77Zm71.32-7.45v37.27c0,1.65.82,2.47,2.47,2.47h42.25v9.93h-47.17c-3.88,0-6.21-1.23-6.99-3.7-.33-1.06-.5-2.31-.5-3.75v-42.22h9.93Z"/>
    <path class="cls-1" d="m256.98,128.14h-11.86v6.15h11.92c1.31,0,2.29-.26,2.96-.78.66-.51.99-1.29.99-2.31s-.33-1.78-.99-2.29c-.67-.51-1.67-.76-3.02-.76Zm1.38,9.98h-13.24v8.6h13.24c1.43,0,2.54-.38,3.34-1.14.78-.75,1.18-1.82,1.18-3.19s-.4-2.4-1.18-3.15c-.8-.74-1.9-1.12-3.34-1.12Zm-17.32,12.36v-26.1h16.06c2.66,0,4.67.54,6.05,1.64,1.37,1.09,2.05,2.7,2.05,4.81,0,1.07-.21,2.01-.64,2.83s-1.06,1.5-1.87,2.01c1.45.82,2.55,1.81,3.28,2.99.74,1.17,1.11,2.5,1.11,3.96,0,2.44-.82,4.35-2.44,5.75-1.63,1.4-3.88,2.1-6.74,2.1h-16.86Zm34.13,0v-26.23h4.14v26.23h-4.14Zm40.85-6.4c-1.49,2.34-3.44,4.13-5.87,5.36-2.42,1.23-5.18,1.85-8.26,1.85-4.59,0-8.38-1.3-11.36-3.9-2.97-2.6-4.45-5.91-4.45-9.9s1.49-7.31,4.45-9.93c2.98-2.62,6.77-3.93,11.36-3.93,2.87,0,5.46.53,7.79,1.61,2.33,1.07,4.2,2.58,5.64,4.54l-3.25,2.26c-1.08-1.48-2.5-2.64-4.27-3.44-1.77-.81-3.73-1.2-5.9-1.2-3.36,0-6.13.95-8.32,2.87-2.2,1.9-3.29,4.3-3.29,7.17s1.1,5.27,3.3,7.17c2.21,1.91,4.98,2.86,8.31,2.86,2.32,0,4.38-.46,6.16-1.37,1.78-.92,3.34-2.34,4.68-4.28l3.27,2.26Zm6.94,6.4v-26.23h4.14v26.23h-4.14Zm40.85-6.4c-1.49,2.34-3.44,4.13-5.87,5.36-2.42,1.23-5.18,1.85-8.26,1.85-4.59,0-8.38-1.3-11.36-3.9-2.97-2.6-4.45-5.91-4.45-9.9s1.49-7.31,4.45-9.93c2.98-2.62,6.76-3.93,11.36-3.93,2.87,0,5.46.53,7.79,1.61,2.33,1.07,4.2,2.58,5.64,4.54l-3.25,2.26c-1.08-1.48-2.5-2.64-4.27-3.44s-3.73-1.2-5.9-1.2c-3.36,0-6.13.95-8.32,2.87-2.2,1.9-3.29,4.3-3.29,7.17s1.1,5.27,3.3,7.17c2.21,1.91,4.98,2.86,8.31,2.86,2.32,0,4.38-.46,6.16-1.37,1.78-.92,3.34-2.34,4.68-4.28l3.27,2.26Zm6.88,6.4v-26.16h4.08v22.4h19.45v3.76h-23.53Zm28.18,0v-26.16h24.53v3.83h-20.45v6.52h13.43v3.76h-13.43v8.28h21.58v3.76h-25.66Zm37.71,0v-22.52h-11.04v-3.64h26.16v3.64h-11.04v22.52h-4.08Zm19.19,0v-26.16h24.53v3.83h-20.45v6.52h13.43v3.76h-13.43v8.28h21.58v3.76h-25.66Zm35.64-15.25h13.91c1.41,0,2.49-.3,3.23-.92.74-.62,1.12-1.5,1.12-2.65s-.38-2.02-1.12-2.61c-.74-.61-1.82-.91-3.23-.91h-13.91v7.09Zm0,3.83v11.42h-4.08v-26.1h17.99c2.68,0,4.77.65,6.28,1.93,1.52,1.29,2.27,3.07,2.27,5.36,0,1.85-.6,3.46-1.8,4.82-1.19,1.36-2.75,2.2-4.67,2.5l7.29,11.48h-4.45l-7.42-11.42h-11.41Zm29.93,11.42v-26.23h4.14v26.23h-4.14Zm17.64-10.1h10.23l-5.08-10.03-5.15,10.03Zm-9.48,10.1l13.31-26.16h2.57l13.42,26.16h-4.38l-3.4-6.65h-13.81l-3.38,6.65h-4.33Z"/>
    <path class="cls-4" d="m170.05,144.22l-11.24-20.02c.74-.42,1.49-.8,2.26-1.16l8.98,21.18Zm2.42,5.7l-20.27-20.76c1.79-1.74,3.78-3.28,5.93-4.57l12.54,21.09,1.8,4.24Zm-5.99-28.81c2.38-.61,4.87-.94,7.43-.97l.36,28.16-3.18-9.15-4.6-18.04Zm35.46,46.18l-25.59-14.34c.09-.16.16-.33.21-.51l28.25,7.93c-.69,2.44-1.65,4.76-2.87,6.92Zm-58.1-6.89l28.24-7.95c.05.18.12.35.21.51l-25.57,14.36c-1.22-2.16-2.19-4.48-2.88-6.91Zm-.22-16.39l28.44,7.23c-.05.18-.08.36-.08.55l-29.33-.35c.03-2.56.36-5.05.97-7.43Zm-.97,8.21l29.33-.38c0,.19.03.37.08.55l-28.43,7.26c-.61-2.38-.94-4.87-.97-7.43Zm4.05-15.88l25.59,14.34c-.09.16-.16.33-.21.51l-28.25-7.93c.68-2.44,1.65-4.76,2.87-6.92Zm25.62,14.29l-25.23-14.97c1.28-2.16,2.82-4.15,4.57-5.94l20.89,20.36.07.15c-.11.12-.21.25-.29.39Zm2.38-30.48c2.56.03,5.05.37,7.43.97l-7.23,28.44-.2-.04-.34-.96.34-28.41Zm22.29,53.77l-21-20.47c.13-.13.24-.28.33-.44l25.23,14.97c-1.29,2.16-2.82,4.15-4.56,5.94Zm-21.48-20.09c.16-.09.31-.2.44-.33l20.49,20.98c-1.79,1.75-3.78,3.28-5.94,4.57l-14.99-25.21Zm-.56.24c.18-.05.35-.12.51-.21l14.37,25.58c-2.16,1.22-4.48,2.19-6.92,2.88l-7.96-28.24Zm-.05.02l7.26,28.43c-2.38.61-4.87.94-7.43.97l-.38-29.33c.19,0,.37-.03.55-.08Zm14.9-29.88l-14.34,25.58c-.16-.09-.33-.16-.51-.21l7.93-28.25c2.44.69,4.76,1.66,6.92,2.88Zm6.61,4.96l-20.46,20.99c-.13-.13-.28-.24-.44-.33l14.96-25.22c2.16,1.29,4.15,2.82,5.94,4.57Zm5.12,6.48l-25.21,14.99c-.09-.16-.2-.31-.33-.44l20.97-20.48c1.74,1.79,3.28,3.78,4.57,5.93Zm-35.02,46.88l7.23-28.44c.18.04.36.08.55.08l-.35,29.33c-2.56-.03-5.05-.36-7.43-.97Zm-7.67-3.08l14.34-25.59c.16.09.33.16.51.21l-7.93,28.25c-2.44-.69-4.75-1.66-6.92-2.87Zm-6.61-4.96l20.46-20.99c.13.13.28.24.44.33l-14.96,25.22c-2.16-1.29-4.15-2.82-5.93-4.56Zm-5.12-6.48l25.21-14.99c.09.16.2.31.33.44l-20.97,20.48c-1.74-1.79-3.28-3.78-4.57-5.93Zm57.69-24.77l-28.24,7.96c-.05-.18-.12-.35-.21-.51l25.57-14.36c1.22,2.16,2.19,4.48,2.88,6.91Zm1.19,8.18l-29.33.38c0-.19-.03-.37-.08-.55l28.43-7.26c.61,2.38.94,4.87.98,7.43Zm-.97,8.21l-28.44-7.23c.04-.17.07-.36.08-.55l29.33.35c-.03,2.56-.36,5.05-.97,7.43Zm-84.74-58.15l4.86-5.92c1.41-1.72,1.47-4.19.13-5.97-7.14-9.52-17.53-15.39-25.08-18.67h0s-.06-.03-.06-.03c-.65-.28-1.28-.55-1.89-.8,8.85-3.14,14.09-6.7,16.86-9.04,1.52,2.2,6.15,8.75,9.65,11.88,3.51,3.14,12.94,9.03,12.94,9.03l.69.45c.34.23,1.34.88,1.34.88l5.62,2.63,6.59,15.55-31.64.02Zm-25.41,46.41c-1.24-2.07-3.42-3.51-5.95-3.74l2.96-5.36h2.48c.46-.02.84-.4.84-.86,0-.47-.38-.84-.85-.84h-1.53s3.66-6.62,3.66-6.62l20.46-24.92h34.28s-56.35,42.33-56.35,42.33Zm-5.85,8.53v-2.37c.66-.24,1.18-.76,1.41-1.42h.28s2.11-1.38,2.11-1.38c.03.2.06.39.06.6,0,2.3-1.67,4.2-3.87,4.57Zm-8.59,3.55h0s.88-2.12.88-2.12l.04.02.74-1.34c1.27,1.66,3.18,2.8,5.38,3.02v5.96c-3.02-3.48-7.03-5.54-7.03-5.54Zm-4.4-10.22c-.59-10.72-5.62-20.25-13.28-26.79l9.48-11.61,8.84,24.12c-1.17,5.12-2,10.27-2.54,14.18l-2.49.11Zm-10.34,17.62l-25.61-14.35.03-.05,1.97.05,26.47,7.43c-.67,2.42-1.64,4.74-2.86,6.93Zm-58.12-6.9l28.24-7.96c.05.18.12.35.21.51l-25.57,14.36c-1.22-2.16-2.19-4.48-2.88-6.91Zm-.22-16.39l28.44,7.23c-.05.18-.08.36-.08.55l-29.33-.35c.03-2.56.36-5.05.97-7.43Zm-.96,8.21l29.33-.38c0,.19.03.37.08.55l-28.43,7.26c-.61-2.38-.94-4.87-.97-7.43Zm4.04-15.89l25.59,14.34c-.09.16-.16.33-.21.51l-28.25-7.93c.69-2.44,1.65-4.76,2.87-6.92Zm49.71-7.18l-15.46,15.86,14.02-17.17c.49.42.97.86,1.43,1.31Zm8.39,14.07l-28.24,7.96c-.05-.18-.12-.35-.21-.51l25.57-14.36c1.22,2.16,2.19,4.48,2.88,6.92Zm-7.8,30.69l-21.01-20.48c.13-.13.24-.28.33-.44l25.25,14.98c-1.27,2.13-2.8,4.12-4.57,5.94Zm-21.49-20.1c.16-.1.31-.2.44-.33l20.5,20.99c-1.82,1.77-3.8,3.31-5.93,4.58l-15-25.23Zm-.56.24c.18-.05.35-.12.51-.21l14.38,25.6c-2.18,1.23-4.51,2.19-6.92,2.87l-7.96-28.25Zm-.05.02l7.26,28.44c-2.4.61-4.89.93-7.43.96l-.37-29.33c.19,0,.37-.03.55-.08Zm14.9-29.88l-11.47,20.47-3.16,4.13,7.71-27.47c2.44.69,4.76,1.65,6.92,2.87Zm-10.17,22.43l17.33-16.92c1.75,1.79,3.28,3.78,4.57,5.93l-25.12,14.94,3.22-3.94Zm12.99-20.64l-13.25,17.31,11.1-18.71c.74.44,1.45.91,2.15,1.4Zm-18.27,23.49l.35-29.34c2.56.03,5.05.37,7.43.97l-7.08,27.83-.43.56-.27-.03Zm-7.83,33.03l7.23-28.44c.18.05.36.08.55.08l-.35,29.33c-2.56-.03-5.05-.36-7.43-.97Zm-7.67-3.08l14.34-25.58c.16.09.33.16.51.21l-7.93,28.25c-2.44-.69-4.76-1.66-6.92-2.87Zm-6.61-4.96l20.46-20.99c.13.13.28.24.44.33l-14.96,25.22c-2.16-1.28-4.15-2.82-5.94-4.56Zm20.08-21.47c.1.16.2.31.33.44l-20.97,20.48c-1.75-1.79-3.28-3.78-4.57-5.93l25.21-14.99Zm-20.66-23.28l20.99,20.46c-.13.13-.24.28-.33.44l-25.23-14.97c1.29-2.16,2.82-4.15,4.57-5.94Zm21.48,20.09c-.16.09-.31.2-.44.33l-20.48-20.98c1.79-1.74,3.78-3.28,5.93-4.57l14.99,25.21Zm.56-.24c-.18.05-.35.12-.51.21l-14.37-25.58c2.16-1.22,4.48-2.19,6.92-2.88l7.95,28.24Zm.06-.02l-7.26-28.44c2.38-.61,4.87-.94,7.43-.97l.38,29.33c-.19,0-.37.03-.55.08Zm32.2.4l-29.33,1.27,28.4-7.25c.49,1.93.81,3.93.93,5.98Zm-.91,9.66l-26.21-6.67,27.12.66c-.11,2.05-.42,4.06-.91,6.01Zm14.74-58.19h-8.85s-2.98-10.24-2.98-10.24c3.88,3.89,8.1,7.4,11.82,10.24Zm8.46,8.58c-.88,1.25-1.91,2.91-2.75,4.25.84-1.35,1.87-3.01,2.75-4.25Zm-.74-3.07h-.02s.26.16.26.16l.21.14c.27.18.52.34.74.48l.28.18.34.22.17.11-.12.16c-.25.35-.49.69-.73,1.04l-.2.29c-.24.34-.47.69-.7,1.04l-.2.29c-.24.36-.47.72-.71,1.08l-.13.2c-1.08,1.68-2.1,3.38-3.03,5.06l-.02.04c-.21.38-.41.76-.61,1.14l-.12.23c-.19.36-.37.72-.55,1.08l-.12.25c-.18.36-.35.71-.51,1.07l-.1.22c-.75,1.62-1.36,3.19-1.81,4.66-.2.67-.37,1.32-.5,1.94l-.05.17-.04.14c-.08.26-.16.51-.24.77l-6.86-23.61h13.26c.8.55,1.5,1.02,2.12,1.43Zm-3.77,47.1v2.31c-1.44-.24-2.64-1.15-3.31-2.39-.12-.22-.22-.46-.3-.7l2.22-4.02h.07s-.03-.08-.03-.08l1.05-1.89.21-.05v1.96s.01.43.01.43c-.34.13-.64.35-.88.62-.37.41-.6.96-.6,1.56,0,1.02.66,1.87,1.56,2.19v.06Zm3.01-2.92c-.22-.74-.79-1.33-1.53-1.56l-.02-2.36c1.51.23,2.78,1.17,3.44,2.49l-1.9,1.43Zm2.29-42.22c-.24.36-.43.68-.62.97.19-.29.38-.61.62-.97Zm30.71-11.44c.3-.39.58-.7.83-.95-.26.25-.53.56-.83.95Zm46.49-11.37c.66,0,1.28.14,1.87.34.84.96,1.37,2.21,1.37,3.58v1.92c0,.78-.17,1.52-.47,2.21-.29.11-.56.23-.79.36-.2.11-.41.17-.63.21-.33-.07-.65-.21-.92-.44l-9.3-8.18h8.87Zm4.51,27.61h0s0,0,0,0h-.16c-3.98,0-7.83.62-11.44,1.76l-8.81-25.31,13.54,6.67s.27.25.7.56c-.2.02-.39.06-.6.06-.67,0-1.3.26-1.77.73-.47.47-.73,1.1-.73,1.77,0,1.37,1.12,2.5,2.5,2.5h.12c.3.9,1.14,1.56,2.14,1.57,2.75,0,5.33-1.07,7.27-3.01.3-.3.56-.61.82-.93.47.07.96-.03,1.37-.33,1.66-1.21,1.29-2.64.54-3.62.18-.77.28-1.56.28-2.37v-1.92c0-3.46-1.73-6.52-4.36-8.38-1.92-2.38-4.85-3.91-8.13-3.92h0s-.04,0-.04,0h-11.55s-.46,0-.46,0l-.78-.09-.73-.26-8.33-6.47-15.55-36.11-.05.03c-.2-.38-.42-.74-.66-1.1l-.49-.73c.47-.68,1.13-1.44,2.03-2.06.17-.12.36-.24.55-.34l.03-.02c.18-.1.37-.19.57-.28l.08-.04c.17-.08.36-.14.54-.2l.16-.06.21-.05c.21.22.43.44.67.65l.3.23c.21.16.42.32.64.46l.4.24c.22.12.43.25.66.36.15.07.31.14.46.21.23.1.47.2.72.29.16.06.33.11.49.17.26.08.52.15.79.22.17.04.34.09.51.12.28.06.58.11.87.15.16.02.32.05.49.07.34.04.68.06,1.03.08l.38.02c.46,0,.92,0,1.39-.03l3.77-.68-3.71.67c3.19-.21,6.55-1.35,9.37-3.68,2.92-2.42,4.87-5.48,5.75-8.59,5.8,2.54,9.73,2.85,4.93-9.07-8.52-21.19-26.1-11.41-36.62-11.45-6.36-.02-3.92,9.03-1,16.2,1.17,2.87,2.42,5.43,3.21,7-1.19.84-2.79,1.51-4.88,1.57-17.11.22-30.1,2.51-39.94,5.69-20.23,6.52-27.1,16.74-28.9,20.17-4.38,5.74-5.65,13.87-2.3,18.8,1.68,2.46,3.57,4.18,5.45,5.02h-4.38c-1.91,0-3.46,1.55-3.46,3.46,0,1.91,1.54,3.45,3.45,3.46h8.23s6.57,17.91,6.57,17.91h-1.8c-1.12,0-2.04.91-2.04,2.04,0,1.12.92,2.04,2.04,2.04h3.29s.62,1.68.62,1.68l-10.5,13.72c-6.21-4.47-13.81-7.11-22.04-7.15h0s0,0,0,0h-.16C17.01,113.84-.01,130.88,0,151.89c0,20.96,16.96,37.95,37.9,38.02h.16c20.35-.01,36.95-15.99,37.97-36.08l1.94.05c-.18,1.5-.26,2.39-.26,2.39l-.19,1.27-.16.6-.22.57s-2.19,2.41-2.08,3.83c.12,1.52.47,2.46,3.62,2.72.73.06,1.86.36,2.96.72-.3.13-.51.43-.51.77,0,.47.38.84.84.84h3.32c1.47.97,3.25,2.43,3.25,2.43l.37.07c.68,0,1.03-.81.65-1.55-.17-.33-.35-.65-.55-.96h5.16c.46,0,.84-.38.84-.84,0-.47-.38-.84-.84-.84h-5.15s0-6.35,0-6.35c3.91-.39,6.95-3.69,6.95-7.7,0-.84-.14-1.65-.39-2.41l60-39.36,3.01,7.1c-13.16,5.99-22.32,19.25-22.31,34.65,0,20.96,16.96,37.95,37.9,38.02h.16c21.01-.01,38.03-17.05,38.02-38.06,0-20.96-16.96-37.95-37.9-38.02Z"/>
    <path class="cls-3" d="m123.31,11.18l.78,3.11c-3.46,3.02-5.53-4.04-11.49.19-3.91,4.84-6.81,7.64-11.86,8.08-2.68.13-6.36-3.48-9.63-1.38-.45-4.25,8.41.84,9.71-1.43,2.66-2.14,2.03-6,6.36-8.63,7.5-3.92,12.3,1.88,16.13.05Z"/>
    <path class="cls-2" d="m170.05,144.22l-11.24-20.02c.74-.42,1.49-.8,2.26-1.16l8.98,21.18Zm2.42,5.7l-20.27-20.76c1.79-1.74,3.78-3.28,5.93-4.57l12.54,21.09,1.8,4.24Zm-5.99-28.81c2.38-.61,4.87-.94,7.43-.97l.36,28.16-3.18-9.15-4.6-18.04Zm35.46,46.18l-25.59-14.34c.09-.16.16-.33.21-.51l28.25,7.93c-.69,2.44-1.65,4.76-2.87,6.92Zm-58.1-6.89l28.24-7.95c.05.18.12.35.21.51l-25.57,14.36c-1.22-2.16-2.19-4.48-2.88-6.91Zm-.22-16.39l28.44,7.23c-.05.18-.08.36-.08.55l-29.33-.35c.03-2.56.36-5.05.97-7.43Zm-.97,8.21l29.33-.38c0,.19.03.37.08.55l-28.43,7.26c-.61-2.38-.94-4.87-.97-7.43Zm4.05-15.88l25.59,14.34c-.09.16-.16.33-.21.51l-28.25-7.93c.68-2.44,1.65-4.76,2.87-6.92Zm25.62,14.29l-25.23-14.97c1.28-2.16,2.82-4.15,4.57-5.94l20.89,20.36.07.15c-.11.12-.21.25-.29.39Zm2.38-30.48c2.56.03,5.05.37,7.43.97l-7.23,28.44-.2-.04-.34-.96.34-28.41Zm22.29,53.77l-21-20.47c.13-.13.24-.28.33-.44l25.23,14.97c-1.29,2.16-2.82,4.15-4.56,5.94Zm-21.48-20.09c.16-.09.31-.2.44-.33l20.49,20.98c-1.79,1.75-3.78,3.28-5.94,4.57l-14.99-25.21Zm-.56.24c.18-.05.35-.12.51-.21l14.37,25.58c-2.16,1.22-4.48,2.19-6.92,2.88l-7.96-28.24Zm-.05.02l7.26,28.43c-2.38.61-4.87.94-7.43.97l-.38-29.33c.19,0,.37-.03.55-.08Zm14.9-29.88l-14.34,25.58c-.16-.09-.33-.16-.51-.21l7.93-28.25c2.44.69,4.76,1.66,6.92,2.88Zm6.61,4.96l-20.46,20.99c-.13-.13-.28-.24-.44-.33l14.96-25.22c2.16,1.29,4.15,2.82,5.94,4.57Zm5.12,6.48l-25.21,14.99c-.09-.16-.2-.31-.33-.44l20.97-20.48c1.74,1.79,3.28,3.78,4.57,5.93Zm-35.02,46.88l7.23-28.44c.18.04.36.08.55.08l-.35,29.33c-2.56-.03-5.05-.36-7.43-.97Zm-7.67-3.08l14.34-25.59c.16.09.33.16.51.21l-7.93,28.25c-2.44-.69-4.75-1.66-6.92-2.87Zm-6.61-4.96l20.46-20.99c.13.13.28.24.44.33l-14.96,25.22c-2.16-1.29-4.15-2.82-5.93-4.56Zm-5.12-6.48l25.21-14.99c.09.16.2.31.33.44l-20.97,20.48c-1.74-1.79-3.28-3.78-4.57-5.93Zm57.69-24.77l-28.24,7.96c-.05-.18-.12-.35-.21-.51l25.57-14.36c1.22,2.16,2.19,4.48,2.88,6.91Zm1.19,8.18l-29.33.38c0-.19-.03-.37-.08-.55l28.43-7.26c.61,2.38.94,4.87.98,7.43Zm-.97,8.21l-28.44-7.23c.04-.17.07-.36.08-.55l29.33.35c-.03,2.56-.36,5.05-.97,7.43Zm-84.74-58.15l4.86-5.92c1.41-1.72,1.47-4.19.13-5.97-7.14-9.52-17.53-15.39-25.08-18.67h0s-.06-.03-.06-.03c-.65-.28-1.28-.55-1.89-.8,8.85-3.14,14.09-6.7,16.86-9.04,1.52,2.2,6.15,8.75,9.65,11.88,3.51,3.14,12.94,9.03,12.94,9.03l.69.45c.34.23,1.34.88,1.34.88l5.62,2.63,6.59,15.55-31.64.02Zm-25.41,46.41c-1.24-2.07-3.42-3.51-5.95-3.74l2.96-5.36h2.48c.46-.02.84-.4.84-.86,0-.47-.38-.84-.85-.84h-1.53s3.66-6.62,3.66-6.62l20.46-24.92h34.28s-56.35,42.33-56.35,42.33Zm-5.85,8.53v-2.37c.66-.24,1.18-.76,1.41-1.42h.28s2.11-1.38,2.11-1.38c.03.2.06.39.06.6,0,2.3-1.67,4.2-3.87,4.57Zm-8.59,3.55h0s.88-2.12.88-2.12l.04.02.74-1.34c1.27,1.66,3.18,2.8,5.38,3.02v5.96c-3.02-3.48-7.03-5.54-7.03-5.54Zm-4.4-10.22c-.59-10.72-5.62-20.25-13.28-26.79l9.48-11.61,8.84,24.12c-1.17,5.12-2,10.27-2.54,14.18l-2.49.11Zm-10.34,17.62l-25.61-14.35.03-.05,1.97.05,26.47,7.43c-.67,2.42-1.64,4.74-2.86,6.93Zm-58.12-6.9l28.24-7.96c.05.18.12.35.21.51l-25.57,14.36c-1.22-2.16-2.19-4.48-2.88-6.91Zm-.22-16.39l28.44,7.23c-.05.18-.08.36-.08.55l-29.33-.35c.03-2.56.36-5.05.97-7.43Zm-.96,8.21l29.33-.38c0,.19.03.37.08.55l-28.43,7.26c-.61-2.38-.94-4.87-.97-7.43Zm4.04-15.89l25.59,14.34c-.09.16-.16.33-.21.51l-28.25-7.93c.69-2.44,1.65-4.76,2.87-6.92Zm49.71-7.18l-15.46,15.86,14.02-17.17c.49.42.97.86,1.43,1.31Zm8.39,14.07l-28.24,7.96c-.05-.18-.12-.35-.21-.51l25.57-14.36c1.22,2.16,2.19,4.48,2.88,6.92Zm-7.8,30.69l-21.01-20.48c.13-.13.24-.28.33-.44l25.25,14.98c-1.27,2.13-2.8,4.12-4.57,5.94Zm-21.49-20.1c.16-.1.31-.2.44-.33l20.5,20.99c-1.82,1.77-3.8,3.31-5.93,4.58l-15-25.23Zm-.56.24c.18-.05.35-.12.51-.21l14.38,25.6c-2.18,1.23-4.51,2.19-6.92,2.87l-7.96-28.25Zm-.05.02l7.26,28.44c-2.4.61-4.89.93-7.43.96l-.37-29.33c.19,0,.37-.03.55-.08Zm14.9-29.88l-11.47,20.47-3.16,4.13,7.71-27.47c2.44.69,4.76,1.65,6.92,2.87Zm-10.17,22.43l17.33-16.92c1.75,1.79,3.28,3.78,4.57,5.93l-25.12,14.94,3.22-3.94Zm12.99-20.64l-13.25,17.31,11.1-18.71c.74.44,1.45.91,2.15,1.4Zm-18.27,23.49l.35-29.34c2.56.03,5.05.37,7.43.97l-7.08,27.83-.43.56-.27-.03Zm-7.83,33.03l7.23-28.44c.18.05.36.08.55.08l-.35,29.33c-2.56-.03-5.05-.36-7.43-.97Zm-7.67-3.08l14.34-25.58c.16.09.33.16.51.21l-7.93,28.25c-2.44-.69-4.76-1.66-6.92-2.87Zm-6.61-4.96l20.46-20.99c.13.13.28.24.44.33l-14.96,25.22c-2.16-1.28-4.15-2.82-5.94-4.56Zm20.08-21.47c.1.16.2.31.33.44l-20.97,20.48c-1.75-1.79-3.28-3.78-4.57-5.93l25.21-14.99Zm-20.66-23.28l20.99,20.46c-.13.13-.24.28-.33.44l-25.23-14.97c1.29-2.16,2.82-4.15,4.57-5.94Zm21.48,20.09c-.16.09-.31.2-.44.33l-20.48-20.98c1.79-1.74,3.78-3.28,5.93-4.57l14.99,25.21Zm.56-.24c-.18.05-.35.12-.51.21l-14.37-25.58c2.16-1.22,4.48-2.19,6.92-2.88l7.95,28.24Zm.06-.02l-7.26-28.44c2.38-.61,4.87-.94,7.43-.97l.38,29.33c-.19,0-.37.03-.55.08Zm32.2.4l-29.33,1.27,28.4-7.25c.49,1.93.81,3.93.93,5.98Zm-.91,9.66l-26.21-6.67,27.12.66c-.11,2.05-.42,4.06-.91,6.01Zm14.74-58.19h-8.85s-2.98-10.24-2.98-10.24c3.88,3.89,8.1,7.4,11.82,10.24Zm8.46,8.58c-.88,1.25-1.91,2.91-2.75,4.25.84-1.35,1.87-3.01,2.75-4.25Zm-.74-3.07h-.02s.26.16.26.16l.21.14c.27.18.52.34.74.48l.28.18.34.22.17.11-.12.16c-.25.35-.49.69-.73,1.04l-.2.29c-.24.34-.47.69-.7,1.04l-.2.29c-.24.36-.47.72-.71,1.08l-.13.2c-1.08,1.68-2.1,3.38-3.03,5.06l-.02.04c-.21.38-.41.76-.61,1.14l-.12.23c-.19.36-.37.72-.55,1.08l-.12.25c-.18.36-.35.71-.51,1.07l-.1.22c-.75,1.62-1.36,3.19-1.81,4.66-.2.67-.37,1.32-.5,1.94l-.05.17-.04.14c-.08.26-.16.51-.24.77l-6.86-23.61h13.26c.8.55,1.5,1.02,2.12,1.43Zm-3.77,47.1v2.31c-1.44-.24-2.64-1.15-3.31-2.39-.12-.22-.22-.46-.3-.7l2.22-4.02h.07s-.03-.08-.03-.08l1.05-1.89.21-.05v1.96s.01.43.01.43c-.34.13-.64.35-.88.62-.37.41-.6.96-.6,1.56,0,1.02.66,1.87,1.56,2.19v.06Zm3.01-2.92c-.22-.74-.79-1.33-1.53-1.56l-.02-2.36c1.51.23,2.78,1.17,3.44,2.49l-1.9,1.43Zm2.29-42.22c-.24.36-.43.68-.62.97.19-.29.38-.61.62-.97Zm30.71-11.44c.3-.39.58-.7.83-.95-.26.25-.53.56-.83.95Zm46.49-11.37c.66,0,1.28.14,1.87.34.84.96,1.37,2.21,1.37,3.58v1.92c0,.78-.17,1.52-.47,2.21-.29.11-.56.23-.79.36-.2.11-.41.17-.63.21-.33-.07-.65-.21-.92-.44l-9.3-8.18h8.87Zm4.51,27.61h0s0,0,0,0h-.16c-3.98,0-7.83.62-11.44,1.76l-8.81-25.31,13.54,6.67s.27.25.7.56c-.2.02-.39.06-.6.06-.67,0-1.3.26-1.77.73-.47.47-.73,1.1-.73,1.77,0,1.37,1.12,2.5,2.5,2.5h.12c.3.9,1.14,1.56,2.14,1.57,2.75,0,5.33-1.07,7.27-3.01.3-.3.56-.61.82-.93.47.07.96-.03,1.37-.33,1.66-1.21,1.29-2.64.54-3.62.18-.77.28-1.56.28-2.37v-1.92c0-3.46-1.73-6.52-4.36-8.38-1.92-2.38-4.85-3.91-8.13-3.92h0s-.04,0-.04,0h-11.55s-.46,0-.46,0l-.78-.09-.73-.26-8.33-6.47-15.55-36.11-.05.03c-.2-.38-.42-.74-.66-1.1l-.49-.73c.47-.68,1.13-1.44,2.03-2.06.17-.12.36-.24.55-.34l.03-.02c.18-.1.37-.19.57-.28l.08-.04c.17-.08.36-.14.54-.2l.16-.06.21-.05c.21.22.43.44.67.65l.3.23c.21.16.42.32.64.46l.4.24c.22.12.43.25.66.36.15.07.31.14.46.21.23.1.47.2.72.29.16.06.33.11.49.17.26.08.52.15.79.22.17.04.34.09.51.12.28.06.58.11.87.15.16.02.32.05.49.07.34.04.68.06,1.03.08l.38.02c.46,0,.92,0,1.39-.03l3.77-.68-3.71.67c3.19-.21,6.55-1.35,9.37-3.68,2.92-2.42,4.87-5.48,5.75-8.59,5.8,2.54,9.73,2.85,4.93-9.07-8.52-21.19-26.1-11.41-36.62-11.45-6.36-.02-3.92,9.03-1,16.2,1.17,2.87,2.42,5.43,3.21,7-1.19.84-2.79,1.51-4.88,1.57-17.11.22-30.1,2.51-39.94,5.69-20.23,6.52-27.1,16.74-28.9,20.17-4.38,5.74-5.65,13.87-2.3,18.8,1.68,2.46,3.57,4.18,5.45,5.02h-4.38c-1.91,0-3.46,1.55-3.46,3.46,0,1.91,1.54,3.45,3.45,3.46h8.23s6.57,17.91,6.57,17.91h-1.8c-1.12,0-2.04.91-2.04,2.04,0,1.12.92,2.04,2.04,2.04h3.29s.62,1.68.62,1.68l-10.5,13.72c-6.21-4.47-13.81-7.11-22.04-7.15h0s0,0,0,0h-.16C17.01,113.84-.01,130.88,0,151.89c0,20.96,16.96,37.95,37.9,38.02h.16c20.35-.01,36.95-15.99,37.97-36.08l1.94.05c-.18,1.5-.26,2.39-.26,2.39l-.19,1.27-.16.6-.22.57s-2.19,2.41-2.08,3.83c.12,1.52.47,2.46,3.62,2.72.73.06,1.86.36,2.96.72-.3.13-.51.43-.51.77,0,.47.38.84.84.84h3.32c1.47.97,3.25,2.43,3.25,2.43l.37.07c.68,0,1.03-.81.65-1.55-.17-.33-.35-.65-.55-.96h5.16c.46,0,.84-.38.84-.84,0-.47-.38-.84-.84-.84h-5.15s0-6.35,0-6.35c3.91-.39,6.95-3.69,6.95-7.7,0-.84-.14-1.65-.39-2.41l60-39.36,3.01,7.1c-13.16,5.99-22.32,19.25-22.31,34.65,0,20.96,16.96,37.95,37.9,38.02h.16c21.01-.01,38.03-17.05,38.02-38.06,0-20.96-16.96-37.95-37.9-38.02Z"/>
  </g>
</svg>